<svg width="72" height="25" viewBox="0 0 72 25" fill="none" xmlns="http://www.w3.org/2000/svg">
<circle cx="12" cy="9.5" r="3" stroke="#FAFAFA" stroke-width="1.5"/>
<circle cx="12" cy="12.5" r="10" stroke="#FAFAFA" stroke-width="1.5"/>
<path d="M17.9691 20.5C17.81 17.6085 16.9247 15.5 11.9999 15.5C7.07521 15.5 6.18991 17.6085 6.03076 20.5" stroke="#FAFAFA" stroke-width="1.5" stroke-linecap="round"/>
<path d="M39.272 10.948C40.124 11.092 40.814 11.392 41.342 11.848C41.87 12.304 42.134 13.012 42.134 13.972C42.134 16.324 40.496 17.5 37.22 17.5H33.8V5.098H36.734C38.306 5.098 39.506 5.356 40.334 5.872C41.174 6.388 41.594 7.174 41.594 8.23C41.594 8.95 41.366 9.55 40.91 10.03C40.466 10.51 39.92 10.816 39.272 10.948ZM35.51 6.448V10.354H37.382C38.102 10.354 38.69 10.18 39.146 9.832C39.614 9.484 39.848 8.992 39.848 8.356C39.848 7.636 39.602 7.138 39.11 6.862C38.63 6.586 37.898 6.448 36.914 6.448H35.51ZM37.22 16.132C38.228 16.132 38.996 15.982 39.524 15.682C40.064 15.382 40.334 14.812 40.334 13.972C40.334 13.156 40.076 12.568 39.56 12.208C39.044 11.848 38.372 11.668 37.544 11.668H35.51V16.132H37.22ZM48.1917 12.424L51.4857 17.5H49.4877L47.1657 13.486L44.8077 17.5H42.9357L46.2477 12.496L43.3137 8.014H45.2577L47.2377 11.488L49.2357 8.014H51.1077L48.1917 12.424ZM56.6978 7.798C58.0298 7.798 59.0618 8.242 59.7938 9.13C60.5378 10.018 60.9098 11.224 60.9098 12.748C60.9098 13.732 60.7418 14.602 60.4058 15.358C60.0698 16.102 59.5838 16.684 58.9478 17.104C58.3118 17.512 57.5558 17.716 56.6798 17.716C55.3478 17.716 54.3098 17.272 53.5658 16.384C52.8218 15.496 52.4498 14.29 52.4498 12.766C52.4498 11.782 52.6178 10.918 52.9538 10.174C53.2898 9.418 53.7758 8.836 54.4118 8.428C55.0478 8.008 55.8098 7.798 56.6978 7.798ZM56.6978 9.13C55.0538 9.13 54.2318 10.342 54.2318 12.766C54.2318 15.178 55.0478 16.384 56.6798 16.384C58.3118 16.384 59.1278 15.172 59.1278 12.748C59.1278 10.336 58.3178 9.13 56.6978 9.13ZM71.0838 16.168V20.2H69.7338L69.4638 17.5H63.3798L63.1098 20.2H61.7598V16.168H62.4258C62.7138 15.976 62.9418 15.76 63.1098 15.52C63.2778 15.268 63.4278 14.836 63.5598 14.224C63.7038 13.612 63.8178 12.718 63.9018 11.542L64.1538 8.014H70.0938V16.168H71.0838ZM68.4378 9.328H65.6478L65.5038 11.326C65.4198 12.442 65.3238 13.3 65.2158 13.9C65.1078 14.5 64.9518 14.962 64.7478 15.286C64.5558 15.61 64.2738 15.904 63.9018 16.168H68.4378V9.328Z" fill="#FAFAFA"/>
</svg>
