<svg width="24" height="18" viewBox="0 0 24 18" fill="none" xmlns="http://www.w3.org/2000/svg">
<path d="M22.925 3.3937C22.6375 2.38745 21.9188 1.6687 20.9125 1.3812C19.1875 0.949951 11.8562 0.949951 11.8562 0.949951C11.8562 0.949951 4.66876 0.949951 2.80001 1.3812C1.79376 1.6687 1.075 2.38745 0.787496 3.3937C0.499996 5.26245 0.5 8.99995 0.5 8.99995C0.5 8.99995 0.500004 12.7375 0.931254 14.6062C1.21875 15.6125 1.9375 16.3312 2.94375 16.6187C4.66875 17.05 12 17.05 12 17.05C12 17.05 19.1875 17.05 21.0562 16.6187C22.0625 16.3312 22.7813 15.6125 23.0688 14.6062C23.5 12.7375 23.5 8.99995 23.5 8.99995C23.5 8.99995 23.5 5.26245 22.925 3.3937ZM9.69999 12.45V5.54995L15.7375 8.99995L9.69999 12.45Z" fill="#FAFAFA"/>
</svg>
